<svg width="293" height="159" viewBox="0 0 293 159" fill="none" xmlns="http://www.w3.org/2000/svg">
<path fill-rule="evenodd" clip-rule="evenodd" d="M60.256 71.564C60.256 76.0255 55.8521 79.5171 50.5369 79.5171C45.1904 79.5171 40.7869 76.0255 40.7869 71.564C40.7869 67.1028 45.1904 63.5854 50.5369 63.5854C55.8521 63.5854 60.256 67.1028 60.256 71.564Z" fill="#EA2822"/>
<path fill-rule="evenodd" clip-rule="evenodd" d="M10.857 105.92C7.22275 107.409 8.09862 97.3472 8.22977 96.5055C10.7258 77.7282 35.9478 19.0142 54.1492 9.43145C62.425 5.04121 69.2121 10.234 71.1828 17.9132C72.3651 22.5623 72.9924 31.187 73.9561 36.587C76.7145 51.7899 81.692 75.0993 102.185 78.1426C118.62 80.5384 153.986 69.57 171.049 65.7496C208.635 57.2675 250.19 54.3538 285.321 71.8621C289.454 73.9082 289.716 73.934 293 76.9123C288.43 76.4979 288.064 76.1744 283.804 75.0088C247.444 65.0634 219.83 66.2678 183.704 75.5269C162.145 81.0304 131.45 92.711 110.388 94.045C66.0887 96.9199 59.3307 56.1669 57.5207 26.2143L57.1706 22.6658C52.9523 26.7968 47.0993 34.6444 45.5666 36.833C38.1662 47.2316 8.17147 96.0523 10.857 105.92Z" fill="#EA2822"/>
<path d="M26.5669 148.792C24.3577 148.792 23.2531 147.843 23.2531 145.946C23.2531 145.323 23.338 144.614 23.508 143.821C23.7062 143 23.9753 141.952 24.3152 140.678C24.7117 139.346 25.0091 138.213 25.2074 137.279C25.4056 136.344 25.5047 135.509 25.5047 134.772C25.5047 132.846 24.6551 131.883 22.9557 131.883C22.5025 131.883 22.0352 131.94 21.5537 132.053L18.1549 148.07H12.0372L17.8151 121.05L24.1028 120.2L22.021 130.014H22.3609C23.4655 130.014 24.4851 129.632 25.4198 128.867C26.3544 128.102 27.0767 127.153 27.5865 126.02C28.1246 124.859 28.3937 123.726 28.3937 122.622C28.3937 121.319 27.9972 120.257 27.2041 119.435C26.4394 118.586 25.2782 118.161 23.7204 118.161C21.4262 118.161 19.4153 118.571 17.6876 119.393C15.9599 120.214 14.6146 121.404 13.6516 122.962C12.7169 124.519 12.2496 126.36 12.2496 128.485C12.2496 129.532 12.3487 130.269 12.547 130.694C12.7452 131.09 12.8444 131.317 12.8444 131.373C11.3149 131.373 10.1678 131.062 9.40313 130.439C8.66673 129.787 8.29853 128.725 8.29853 127.252C8.29853 125.44 9.03493 123.684 10.5077 121.984C12.0088 120.257 13.9206 118.869 16.2431 117.821C18.5656 116.745 20.8881 116.207 23.2106 116.207C25.3348 116.207 27.1192 116.518 28.5636 117.141C30.0081 117.764 31.0844 118.6 31.7924 119.648C32.5005 120.667 32.8546 121.786 32.8546 123.004C32.8546 124.335 32.4439 125.666 31.6225 126.998C30.8011 128.329 29.6824 129.419 28.2662 130.269C29.3425 130.58 30.0931 131.104 30.5179 131.841C30.9711 132.549 31.1977 133.441 31.1977 134.517C31.1977 135.339 31.0985 136.217 30.9003 137.151C30.702 138.058 30.4188 139.191 30.0506 140.55C29.824 141.428 29.6116 142.292 29.4133 143.142C29.2151 143.991 29.1159 144.699 29.1159 145.266C29.1159 145.917 29.2575 146.498 29.5408 147.008C29.8523 147.518 30.263 147.872 30.7728 148.07C29.0451 148.551 27.6431 148.792 26.5669 148.792ZM39.6345 148.325C37.5386 148.325 35.91 147.787 34.7488 146.71C33.5875 145.606 33.0069 143.892 33.0069 141.57C33.0069 139.615 33.3893 137.463 34.154 135.112C34.9187 132.761 36.1649 130.736 37.8926 129.037C39.6203 127.309 41.8153 126.445 44.4777 126.445C47.5932 126.445 49.151 127.805 49.151 130.524C49.151 132.11 48.6978 133.569 47.7915 134.9C46.8852 136.231 45.6814 137.307 44.1803 138.129C42.6792 138.922 41.079 139.375 39.3796 139.488C39.3229 140.338 39.2946 140.904 39.2946 141.187C39.2946 142.575 39.5353 143.524 40.0168 144.034C40.4983 144.515 41.2772 144.756 42.3535 144.756C43.8829 144.756 45.1858 144.402 46.2621 143.694C47.3667 142.986 48.5704 141.91 49.8732 140.465H51.3177C48.1739 145.705 44.2794 148.325 39.6345 148.325ZM39.7194 137.449C40.7674 137.392 41.7587 137.024 42.6934 136.344C43.6563 135.664 44.4211 134.801 44.9875 133.753C45.5823 132.705 45.8797 131.6 45.8797 130.439C45.8797 129.278 45.5257 128.697 44.8176 128.697C43.798 128.697 42.7925 129.589 41.8012 131.373C40.8382 133.158 40.1443 135.183 39.7194 137.449ZM54.9624 148.325C53.348 148.325 52.0027 147.772 50.9264 146.668C49.8501 145.563 49.312 143.836 49.312 141.485C49.312 139.389 49.7227 137.194 50.544 134.9C51.3937 132.577 52.6399 130.623 54.2827 129.037C55.9537 127.422 57.9363 126.615 60.2305 126.615C61.3917 126.615 62.2556 126.813 62.822 127.21C63.3885 127.607 63.6717 128.13 63.6717 128.782V128.952L65.7535 119.18L72.0412 118.331L67.1555 141.272C67.0422 141.697 66.9855 142.15 66.9855 142.632C66.9855 143.198 67.113 143.609 67.3679 143.864C67.6511 144.09 68.1043 144.204 68.7274 144.204C69.5204 144.204 70.2002 143.864 70.7666 143.184C71.3614 142.504 71.8287 141.598 72.1686 140.465H73.953C72.2253 145.535 69.3788 148.07 65.4136 148.07C64.2523 148.07 63.3035 147.758 62.5671 147.135C61.8591 146.512 61.42 145.606 61.2501 144.416C60.5137 145.549 59.6215 146.484 58.5736 147.22C57.554 147.957 56.3502 148.325 54.9624 148.325ZM57.7239 144.204C58.4037 144.204 59.0834 143.892 59.7632 143.269C60.4712 142.646 60.9527 141.782 61.2076 140.678V140.465L63.2894 130.736C63.0345 129.745 62.4538 129.249 61.5475 129.249C60.4146 129.249 59.395 129.915 58.4886 131.246C57.5823 132.549 56.8742 134.135 56.3644 136.004C55.8546 137.845 55.5997 139.474 55.5997 140.89C55.5997 142.306 55.7979 143.212 56.1945 143.609C56.6193 144.006 57.1291 144.204 57.7239 144.204ZM76.3912 148.325C75.0317 148.325 73.9271 147.9 73.0774 147.05C72.256 146.172 71.8453 144.884 71.8453 143.184C71.8453 142.504 71.9586 141.598 72.1852 140.465L75.0742 126.828H81.1919L78.133 141.272C78.0481 141.612 78.0056 141.966 78.0056 142.334C78.0056 143.581 78.4304 144.204 79.2801 144.204C80.0732 144.204 80.7529 143.878 81.3194 143.227C81.8858 142.547 82.339 141.626 82.6789 140.465L85.5678 126.828H91.6856L88.6267 141.272C88.5417 141.641 88.4993 141.995 88.4993 142.334C88.4993 143.581 89.1082 144.204 90.3261 144.204C91.4024 144.204 92.5636 143.821 93.8098 143.057C95.0843 142.292 96.1889 141.343 97.1236 140.21L94.6595 126.828H100.65L102.307 136.004C103.581 134.645 104.573 133.37 105.281 132.181C105.989 130.991 106.343 130.014 106.343 129.249C106.343 128.994 106.329 128.824 106.3 128.739C105.904 128.796 105.663 128.824 105.578 128.824C104.87 128.824 104.36 128.612 104.049 128.187C103.737 127.734 103.581 127.153 103.581 126.445C103.581 125.822 103.808 125.341 104.261 125.001C104.714 124.633 105.281 124.449 105.96 124.449C106.867 124.449 107.575 124.803 108.085 125.511C108.594 126.219 108.849 127.125 108.849 128.23C108.849 129.589 108.368 131.062 107.405 132.648C106.47 134.206 104.927 136.103 102.774 138.341L103.156 140.465C103.411 141.881 103.695 142.858 104.006 143.397C104.346 143.935 104.955 144.204 105.833 144.204C106.343 144.204 106.796 144.119 107.192 143.949C107.107 145.365 106.612 146.413 105.705 147.093C104.827 147.744 103.765 148.07 102.519 148.07C101.188 148.07 100.154 147.673 99.4178 146.88C98.6814 146.059 98.0724 144.643 97.5909 142.632C94.5887 146.427 91.2607 148.325 87.6071 148.325C86.3892 148.325 85.3271 147.957 84.4207 147.22C83.5144 146.484 82.948 145.492 82.7214 144.246C81.7301 145.832 80.7104 146.909 79.6625 147.475C78.6145 148.042 77.5241 148.325 76.3912 148.325ZM128.48 148.835C126.696 148.835 125.124 148.523 123.765 147.9C122.405 147.277 121.357 146.413 120.621 145.308C119.884 144.175 119.516 142.873 119.516 141.4C119.516 140.154 119.771 139.021 120.281 138.001C120.819 136.981 121.527 136.174 122.405 135.579C123.312 134.985 124.303 134.687 125.379 134.687C126.37 134.687 127.206 134.942 127.886 135.452C128.565 135.933 128.99 136.613 129.16 137.491C127.687 137.491 126.512 137.888 125.634 138.681C124.756 139.446 124.317 140.493 124.317 141.825C124.317 143.043 124.685 144.02 125.422 144.756C126.158 145.492 127.135 145.861 128.353 145.861C129.854 145.861 131.086 145.365 132.049 144.374C133.04 143.354 133.536 142.08 133.536 140.55C133.536 139.219 133.168 137.959 132.432 136.769C131.695 135.579 130.591 134.135 129.118 132.436C127.588 130.68 126.427 129.178 125.634 127.932C124.869 126.658 124.487 125.27 124.487 123.769C124.487 122.296 124.898 120.979 125.719 119.818C126.54 118.628 127.673 117.693 129.118 117.014C130.562 116.334 132.191 115.994 134.003 115.994C136.298 115.994 138.124 116.532 139.484 117.609C140.872 118.685 141.566 120.129 141.566 121.942C141.566 123.131 141.268 124.094 140.674 124.831C140.079 125.567 139.3 125.935 138.337 125.935C137.261 125.935 136.397 125.496 135.745 124.618C136.283 124.222 136.708 123.698 137.02 123.047C137.331 122.395 137.487 121.715 137.487 121.007C137.487 120.101 137.218 119.379 136.68 118.841C136.142 118.302 135.405 118.033 134.471 118.033C133.338 118.033 132.403 118.444 131.667 119.265C130.959 120.058 130.605 121.078 130.605 122.324C130.605 123.457 130.93 124.519 131.582 125.511C132.233 126.474 133.253 127.72 134.641 129.249C135.774 130.467 136.68 131.515 137.36 132.393C138.068 133.271 138.663 134.291 139.144 135.452C139.654 136.585 139.909 137.817 139.909 139.148C139.909 140.961 139.399 142.604 138.379 144.076C137.388 145.549 136.014 146.71 134.258 147.56C132.531 148.41 130.605 148.835 128.48 148.835ZM157.638 148.325C155.91 148.325 154.636 147.872 153.814 146.965C153.021 146.031 152.625 144.884 152.625 143.524C152.625 142.929 152.696 142.264 152.837 141.527C152.979 140.763 153.121 140.026 153.262 139.318C153.432 138.61 153.545 138.157 153.602 137.959C153.829 136.967 154.041 135.99 154.239 135.027C154.438 134.064 154.537 133.285 154.537 132.69C154.537 131.246 154.027 130.524 153.007 130.524C152.271 130.524 151.619 130.892 151.053 131.628C150.487 132.336 150.033 133.271 149.693 134.432L146.805 148.07H140.687L146.847 119.18L153.135 118.331L150.841 129.037C152.257 127.451 153.914 126.658 155.811 126.658C157.256 126.658 158.403 127.054 159.252 127.847C160.102 128.64 160.527 129.844 160.527 131.458C160.527 132.28 160.428 133.2 160.23 134.22C160.031 135.211 159.748 136.429 159.38 137.874C159.153 138.752 158.941 139.615 158.743 140.465C158.573 141.287 158.488 141.938 158.488 142.419C158.488 142.986 158.615 143.425 158.87 143.736C159.125 144.048 159.564 144.204 160.187 144.204C161.037 144.204 161.717 143.906 162.226 143.312C162.736 142.689 163.246 141.74 163.756 140.465H165.54C164.492 143.581 163.274 145.677 161.887 146.753C160.527 147.801 159.111 148.325 157.638 148.325ZM169.954 148.24C167.858 148.24 166.201 147.702 164.983 146.625C163.765 145.549 163.156 143.85 163.156 141.527C163.156 139.601 163.553 137.463 164.346 135.112C165.139 132.761 166.413 130.736 168.169 129.037C169.925 127.309 172.134 126.445 174.797 126.445C178.422 126.445 180.235 128.711 180.235 133.243V133.285C180.32 133.314 180.476 133.328 180.702 133.328C181.637 133.328 182.713 133.087 183.931 132.606C185.149 132.096 186.253 131.487 187.245 130.779L187.627 131.926C186.806 132.804 185.73 133.554 184.398 134.177C183.095 134.772 181.665 135.197 180.107 135.452C179.881 138.029 179.3 140.281 178.366 142.207C177.431 144.133 176.227 145.62 174.754 146.668C173.282 147.716 171.681 148.24 169.954 148.24ZM171.653 144.416C172.333 144.416 173.012 144.034 173.692 143.269C174.372 142.476 174.967 141.414 175.477 140.083C175.986 138.723 176.355 137.222 176.581 135.579C175.816 135.409 175.434 134.815 175.434 133.795C175.434 132.634 175.873 131.869 176.751 131.501C176.694 130.566 176.553 129.929 176.326 129.589C176.1 129.221 175.703 129.037 175.137 129.037C174.202 129.037 173.296 129.717 172.418 131.076C171.54 132.436 170.832 134.064 170.293 135.962C169.755 137.859 169.486 139.53 169.486 140.975C169.486 142.334 169.642 143.255 169.954 143.736C170.265 144.19 170.832 144.416 171.653 144.416ZM185.65 125.256H191.767L191.088 128.442C192.504 127.224 194.161 126.615 196.058 126.615C197.644 126.615 198.905 127.139 199.839 128.187C200.774 129.235 201.241 130.949 201.241 133.328C201.241 135.565 200.916 137.831 200.264 140.125C199.613 142.391 198.508 144.331 196.95 145.946C195.393 147.532 193.339 148.325 190.79 148.325C188.978 148.325 187.774 147.815 187.179 146.795L184.97 157.162L178.555 158.691L185.65 125.256ZM189.473 144.629C190.833 144.629 191.951 143.991 192.83 142.717C193.736 141.442 194.387 139.927 194.784 138.171C195.209 136.387 195.421 134.73 195.421 133.2C195.421 130.849 194.713 129.674 193.297 129.674C192.787 129.674 192.263 129.858 191.725 130.226C191.215 130.595 190.762 131.104 190.365 131.756L187.859 143.651C188.085 144.303 188.624 144.629 189.473 144.629ZM205.523 125.256H211.64L210.961 128.442C212.377 127.224 214.034 126.615 215.931 126.615C217.518 126.615 218.778 127.139 219.713 128.187C220.647 129.235 221.115 130.949 221.115 133.328C221.115 135.565 220.789 137.831 220.137 140.125C219.486 142.391 218.381 144.331 216.824 145.946C215.266 147.532 213.212 148.325 210.663 148.325C208.851 148.325 207.647 147.815 207.052 146.795L204.843 157.162L198.428 158.691L205.523 125.256ZM209.346 144.629C210.706 144.629 211.825 143.991 212.703 142.717C213.609 141.442 214.26 139.927 214.657 138.171C215.082 136.387 215.294 134.73 215.294 133.2C215.294 130.849 214.586 129.674 213.17 129.674C212.66 129.674 212.136 129.858 211.598 130.226C211.088 130.595 210.635 131.104 210.239 131.756L207.732 143.651C207.959 144.303 208.497 144.629 209.346 144.629ZM229.262 124.533C228.327 124.533 227.534 124.208 226.883 123.556C226.231 122.905 225.906 122.112 225.906 121.177C225.906 120.243 226.231 119.449 226.883 118.798C227.534 118.118 228.327 117.778 229.262 117.778C230.197 117.778 230.99 118.118 231.641 118.798C232.321 119.449 232.661 120.243 232.661 121.177C232.661 122.112 232.321 122.905 231.641 123.556C230.99 124.208 230.197 124.533 229.262 124.533ZM226.373 148.325C225.013 148.325 223.909 147.9 223.059 147.05C222.238 146.201 221.827 144.926 221.827 143.227C221.827 142.519 221.94 141.598 222.167 140.465L225.056 126.828H231.174L228.115 141.272C228.002 141.697 227.945 142.15 227.945 142.632C227.945 143.198 228.072 143.609 228.327 143.864C228.61 144.09 229.064 144.204 229.687 144.204C230.508 144.204 231.273 143.864 231.981 143.184C232.689 142.476 233.199 141.57 233.51 140.465H235.295C234.247 143.524 232.901 145.606 231.259 146.71C229.616 147.787 227.987 148.325 226.373 148.325ZM248.83 148.325C247.103 148.325 245.828 147.872 245.007 146.965C244.214 146.031 243.817 144.884 243.817 143.524C243.817 142.929 243.888 142.264 244.03 141.527C244.171 140.763 244.313 140.026 244.454 139.318C244.624 138.61 244.738 138.157 244.794 137.959C245.021 136.967 245.233 135.99 245.432 135.027C245.63 134.064 245.729 133.285 245.729 132.69C245.729 131.246 245.219 130.524 244.2 130.524C243.463 130.524 242.812 130.892 242.245 131.628C241.679 132.336 241.226 133.271 240.886 134.432L237.997 148.07H231.879L236.382 126.828H242.5L242.033 129.037C243.449 127.451 245.106 126.658 247.004 126.658C248.448 126.658 249.595 127.054 250.445 127.847C251.294 128.64 251.719 129.844 251.719 131.458C251.719 132.28 251.62 133.2 251.422 134.22C251.224 135.211 250.94 136.429 250.572 137.874C250.346 138.752 250.133 139.615 249.935 140.465C249.765 141.287 249.68 141.938 249.68 142.419C249.68 142.986 249.807 143.425 250.062 143.736C250.317 144.048 250.756 144.204 251.379 144.204C252.229 144.204 252.909 143.906 253.419 143.312C253.928 142.689 254.438 141.74 254.948 140.465H256.732C255.684 143.581 254.467 145.677 253.079 146.753C251.719 147.801 250.303 148.325 248.83 148.325ZM262.42 158.691C261.089 158.691 259.914 158.252 258.894 157.374C257.903 156.524 257.407 155.434 257.407 154.103C257.407 152.856 257.719 151.837 258.342 151.044C258.965 150.251 259.772 149.628 260.763 149.174C261.755 148.721 263.086 148.24 264.757 147.73L265.139 145.946C263.667 147.532 261.967 148.325 260.041 148.325C258.427 148.325 257.082 147.772 256.005 146.668C254.929 145.563 254.391 143.836 254.391 141.485C254.391 139.389 254.802 137.194 255.623 134.9C256.473 132.577 257.719 130.623 259.362 129.037C261.033 127.422 263.015 126.615 265.309 126.615C266.471 126.615 267.334 126.813 267.901 127.21C268.467 127.607 268.751 128.13 268.751 128.782V128.867L269.175 126.828H275.336L270.153 151.469C269.586 154.188 268.581 156.071 267.136 157.119C265.72 158.167 264.148 158.691 262.42 158.691ZM262.803 144.204C263.454 144.204 264.106 143.935 264.757 143.397C265.437 142.83 265.918 142.037 266.202 141.017L268.368 130.736C268.142 129.745 267.561 129.249 266.626 129.249C265.493 129.249 264.474 129.915 263.567 131.246C262.661 132.549 261.953 134.135 261.443 136.004C260.933 137.845 260.679 139.474 260.679 140.89C260.679 142.306 260.877 143.212 261.273 143.609C261.698 144.006 262.208 144.204 262.803 144.204ZM261.443 154.91C261.953 154.91 262.435 154.641 262.888 154.103C263.341 153.593 263.695 152.757 263.95 151.596L264.46 149.089C262.959 149.599 261.797 150.194 260.976 150.874C260.155 151.554 259.744 152.432 259.744 153.508C259.744 153.848 259.914 154.159 260.254 154.443C260.594 154.754 260.99 154.91 261.443 154.91Z" fill="black"/>
</svg>
